<?xml version="1.0" encoding="utf-8"?>
<svg id="master-artboard" viewBox="0 0 612 792" version="1.1" xmlns="http://www.w3.org/2000/svg" x="0px" y="0px" style="enable-background:new 0 0 612 792;" width="612px" height="792px">

<path class="st1" d="M208.5,321.1c22.3,0,40.4,18.1,40.4,40.4s-18.1,40.4-40.4,40.4c-22.3,0-40.4-18.1-40.4-40.4&#10;&#9;&#9;S186.2,321.1,208.5,321.1L208.5,321.1z" style="fill-rule: evenodd; clip-rule: evenodd; fill: rgb(37, 85, 76);" transform="matrix(5.737646579742432, 0, 0, 5.737646579742432, -894.8750721514217, -1657.0558367567958)"/><path class="st3" d="M206.4,318.9c22.3,0,40.4,18.1,40.4,40.4c0,22.3-18.1,40.4-40.4,40.4c-22.3,0-40.4-18.1-40.4-40.4&#10;&#9;&#9;C166,337,184.1,318.9,206.4,318.9L206.4,318.9z" style="fill-rule: evenodd; clip-rule: evenodd; fill: rgb(57, 142, 127);" transform="matrix(5.737646579742432, 0, 0, 5.737646579742432, -894.8750721514217, -1657.0558367567958)"/><path class="st4" d="M246.2,366.2c-1.4,7.9-5,15.1-10.3,20.7c-7.4,7.9-17.9,12.8-29.5,12.8c-0.4,0-0.7,0-1.1,0&#10;&#9;&#9;c-11.2-0.3-21.3-5.2-28.5-12.8l15.6-7.8c0-3,1.7-4.6,1.7-4.6s0.6-1.2-0.5-3.9c-1.1-2.6-1.7-5.9-1.7-5.9c-1,0.9-2.2,0.7-2.9-5.5&#10;&#9;&#9;c-0.7-6.2,2-4.9,2-4.9c-2.9-21.4,15.4-21,15.4-21s6.6-0.2,11.3,4.4c0.1,0.1,0.2,0.2,0.2,0.2L246.2,366.2L246.2,366.2z" style="fill-rule: evenodd; clip-rule: evenodd; fill: rgb(45, 110, 98);" transform="matrix(5.737646579742432, 0, 0, 5.737646579742432, -894.8750721514217, -1657.0558367567958)"/><path class="st5" d="M220.3,379.1l15.6,7.8c-7.4,7.9-17.9,12.8-29.5,12.8c-11.7,0-22.2-4.9-29.5-12.8l15.6-7.8c0-3,1.7-4.6,1.7-4.6&#10;&#9;&#9;s0.6-1.2-0.5-3.9c-1.1-2.6-1.7-5.9-1.7-5.9c-1,0.9-2.2,0.7-2.9-5.5c-0.7-6.2,2-4.9,2-4.9c-2.9-21.4,15.4-21,15.4-21&#10;&#9;&#9;s18.3-0.5,15.4,21c0,0,2.7-1.3,2,4.9c-0.7,6.2-2,6.4-2.9,5.5c0,0-0.6,3.3-1.7,5.9c-1.1,2.6-0.5,3.9-0.5,3.9&#10;&#9;&#9;S220.3,376.2,220.3,379.1L220.3,379.1z" style="fill-rule: evenodd; clip-rule: evenodd; fill: rgb(255, 255, 255);" transform="matrix(5.737646579742432, 0, 0, 5.737646579742432, -895.1797596514216, -1657.131276209921)"/>
</svg>